<svg width="64" height="64" viewBox="0 0 64 64" fill="none" xmlns="http://www.w3.org/2000/svg">
<g id="vuesax/bold/add-circle">
<g id="add-circle">
<path id="Vector" d="M32.0007 5.33334C17.3073 5.33334 5.33398 17.3067 5.33398 32C5.33398 46.6933 17.3073 58.6667 32.0007 58.6667C46.694 58.6667 58.6673 46.6933 58.6673 32C58.6673 17.3067 46.694 5.33334 32.0007 5.33334ZM42.6673 34H34.0007V42.6667C34.0007 43.76 33.094 44.6667 32.0007 44.6667C30.9073 44.6667 30.0007 43.76 30.0007 42.6667V34H21.334C20.2407 34 19.334 33.0933 19.334 32C19.334 30.9067 20.2407 30 21.334 30H30.0007V21.3333C30.0007 20.24 30.9073 19.3333 32.0007 19.3333C33.094 19.3333 34.0007 20.24 34.0007 21.3333V30H42.6673C43.7607 30 44.6673 30.9067 44.6673 32C44.6673 33.0933 43.7607 34 42.6673 34Z" fill="#121212"/>
</g>
</g>
</svg>
