<svg width="408" height="338" viewBox="0 0 408 338" fill="none" xmlns="http://www.w3.org/2000/svg">
<path d="M359.807 88.9308C370.523 113.191 362.522 143.089 340.695 171.878C318.88 200.652 283.321 228.213 239.179 247.712C195.037 267.21 150.716 274.935 114.754 271.683C78.7728 268.43 51.2825 254.209 40.5662 229.949C29.8499 205.69 37.8512 175.791 59.6784 147.002C81.4937 118.228 117.053 90.6674 161.194 71.1686C205.336 51.6699 249.657 43.9453 285.619 47.1968C321.601 50.4501 349.091 64.6711 359.807 88.9308Z" stroke="white" stroke-opacity="0.5"/>
<path d="M366.974 107.629C377.69 131.889 369.689 161.788 347.861 190.577C326.046 219.35 290.487 246.911 246.345 266.41C202.204 285.909 157.882 293.634 121.921 290.382C85.9393 287.129 58.449 272.908 47.7327 248.648C37.0164 224.388 45.0177 194.49 66.8449 165.7C88.6603 136.927 124.219 109.366 168.361 89.8672C212.503 70.3685 256.824 62.6439 292.786 65.8954C328.767 69.1488 356.257 83.3697 366.974 107.629Z" stroke="white" stroke-opacity="0.5"/>
</svg>
