<svg width="20" height="20" viewBox="0 0 20 20" fill="none" xmlns="http://www.w3.org/2000/svg">
<path fill-rule="evenodd" clip-rule="evenodd" d="M9.16602 1.66699C5.02388 1.66699 1.66602 5.02486 1.66602 9.16699C1.66602 13.3091 5.02388 16.667 9.16602 16.667C10.9369 16.667 12.5644 16.0533 13.8474 15.0269L16.9101 18.0896C17.2355 18.415 17.7632 18.415 18.0886 18.0896C18.414 17.7641 18.414 17.2365 18.0886 16.9111L15.0259 13.8484C16.0523 12.5653 16.666 10.9378 16.666 9.16699C16.666 5.02486 13.3082 1.66699 9.16602 1.66699ZM3.33268 9.16699C3.33268 5.94533 5.94436 3.33366 9.16602 3.33366C12.3877 3.33366 14.9993 5.94533 14.9993 9.16699C14.9993 12.3887 12.3877 15.0003 9.16602 15.0003C5.94436 15.0003 3.33268 12.3887 3.33268 9.16699Z" fill="#818181"/>
</svg>
