<svg width="20" height="20" viewBox="0 0 20 20" fill="none" xmlns="http://www.w3.org/2000/svg">
<path fill-rule="evenodd" clip-rule="evenodd" d="M9.16663 1.66666C5.02449 1.66666 1.66663 5.02452 1.66663 9.16666C1.66663 13.3088 5.02449 16.6667 9.16663 16.6667C10.9375 16.6667 12.565 16.0529 13.848 15.0266L16.9107 18.0892C17.2361 18.4147 17.7638 18.4147 18.0892 18.0892C18.4147 17.7638 18.4147 17.2362 18.0892 16.9107L15.0265 13.8481C16.0529 12.565 16.6666 10.9375 16.6666 9.16666C16.6666 5.02452 13.3088 1.66666 9.16663 1.66666ZM3.33329 9.16666C3.33329 5.945 5.94497 3.33332 9.16663 3.33332C12.3883 3.33332 15 5.945 15 9.16666C15 12.3883 12.3883 15 9.16663 15C5.94497 15 3.33329 12.3883 3.33329 9.16666Z" fill="#818181"/>
</svg>
