<svg width="20" height="20" viewBox="0 0 20 20" fill="none" xmlns="http://www.w3.org/2000/svg">
<path fill-rule="evenodd" clip-rule="evenodd" d="M15.8342 17.5C17.6752 17.5 19.1675 16.0076 19.1675 14.1667V6.68557C19.1678 6.67283 19.1678 6.66005 19.1675 6.64725V5.83333C19.1675 3.99238 17.6752 2.5 15.8342 2.5H4.16754C2.32659 2.5 0.834206 3.99238 0.834206 5.83333V6.64726C0.83391 6.66005 0.833911 6.67282 0.834206 6.68556V14.1667C0.834206 16.0076 2.32659 17.5 4.16754 17.5H15.8342ZM2.50087 14.1667C2.50087 15.0871 3.24706 15.8333 4.16754 15.8333H15.8342C16.7547 15.8333 17.5009 15.0871 17.5009 14.1667V7.89753L11.2388 10.4023C10.4441 10.7202 9.55761 10.7202 8.7629 10.4023L2.50087 7.89753V14.1667ZM10.6199 8.85488L17.5009 6.10247V5.83333C17.5009 4.91286 16.7547 4.16667 15.8342 4.16667H4.16754C3.24706 4.16667 2.50087 4.91286 2.50087 5.83333V6.10247L9.38189 8.85488C9.77924 9.01382 10.2225 9.01382 10.6199 8.85488Z" fill="#818181"/>
</svg>
