<svg width="20" height="20" viewBox="0 0 20 20" fill="none" xmlns="http://www.w3.org/2000/svg">
<path fill-rule="evenodd" clip-rule="evenodd" d="M9.16663 1.66669C5.02449 1.66669 1.66663 5.02455 1.66663 9.16669C1.66663 13.3088 5.02449 16.6667 9.16663 16.6667C10.9375 16.6667 12.565 16.053 13.848 15.0266L16.9107 18.0893C17.2361 18.4147 17.7638 18.4147 18.0892 18.0893C18.4147 17.7638 18.4147 17.2362 18.0892 16.9108L15.0265 13.8481C16.0529 12.565 16.6666 10.9375 16.6666 9.16669C16.6666 5.02455 13.3088 1.66669 9.16663 1.66669ZM3.33329 9.16669C3.33329 5.94503 5.94497 3.33335 9.16663 3.33335C12.3883 3.33335 15 5.94503 15 9.16669C15 12.3883 12.3883 15 9.16663 15C5.94497 15 3.33329 12.3883 3.33329 9.16669Z" fill="#818181"/>
</svg>
