<svg width="20" height="20" viewBox="0 0 20 20" fill="none" xmlns="http://www.w3.org/2000/svg">
<path fill-rule="evenodd" clip-rule="evenodd" d="M9.1665 1.66666C5.02437 1.66666 1.6665 5.02452 1.6665 9.16666C1.6665 13.3088 5.02437 16.6667 9.1665 16.6667C10.9373 16.6667 12.5649 16.0529 13.8479 15.0266L16.9106 18.0892C17.236 18.4147 17.7637 18.4147 18.0891 18.0892C18.4145 17.7638 18.4145 17.2362 18.0891 16.9107L15.0264 13.8481C16.0528 12.565 16.6665 10.9375 16.6665 9.16666C16.6665 5.02452 13.3086 1.66666 9.1665 1.66666ZM3.33317 9.16666C3.33317 5.945 5.94484 3.33332 9.1665 3.33332C12.3882 3.33332 14.9998 5.945 14.9998 9.16666C14.9998 12.3883 12.3882 15 9.1665 15C5.94484 15 3.33317 12.3883 3.33317 9.16666Z" fill="#818181"/>
</svg>
