<svg width="20" height="20" viewBox="0 0 20 20" fill="none" xmlns="http://www.w3.org/2000/svg">
<path fill-rule="evenodd" clip-rule="evenodd" d="M15.8336 17.5C17.6745 17.5 19.1669 16.0076 19.1669 14.1667V6.68557C19.1672 6.67283 19.1672 6.66005 19.1669 6.64725V5.83333C19.1669 3.99238 17.6745 2.5 15.8336 2.5H4.16689C2.32594 2.5 0.833555 3.99238 0.833555 5.83333V6.64726C0.833259 6.66005 0.83326 6.67282 0.833555 6.68557V14.1667C0.833555 16.0076 2.32594 17.5 4.16689 17.5H15.8336ZM2.50022 14.1667C2.50022 15.0871 3.24641 15.8333 4.16689 15.8333H15.8336C16.754 15.8333 17.5002 15.0871 17.5002 14.1667V7.89753L11.2382 10.4023C10.4435 10.7202 9.55696 10.7202 8.76225 10.4023L2.50022 7.89753V14.1667ZM10.6192 8.85488L17.5002 6.10247V5.83333C17.5002 4.91286 16.754 4.16667 15.8336 4.16667H4.16689C3.24641 4.16667 2.50022 4.91286 2.50022 5.83333V6.10247L9.38124 8.85488C9.77859 9.01382 10.2219 9.01382 10.6192 8.85488Z" fill="#818181"/>
</svg>
