<svg width="20" height="20" viewBox="0 0 20 20" fill="none" xmlns="http://www.w3.org/2000/svg">
<path fill-rule="evenodd" clip-rule="evenodd" d="M9.16675 1.66666C5.02461 1.66666 1.66675 5.02452 1.66675 9.16666C1.66675 13.3088 5.02461 16.6667 9.16675 16.6667C10.9376 16.6667 12.5651 16.0529 13.8482 15.0266L16.9108 18.0892C17.2363 18.4147 17.7639 18.4147 18.0893 18.0892C18.4148 17.7638 18.4148 17.2362 18.0893 16.9107L15.0267 13.8481C16.053 12.565 16.6667 10.9375 16.6667 9.16666C16.6667 5.02452 13.3089 1.66666 9.16675 1.66666ZM3.33341 9.16666C3.33341 5.945 5.94509 3.33332 9.16675 3.33332C12.3884 3.33332 15.0001 5.945 15.0001 9.16666C15.0001 12.3883 12.3884 15 9.16675 15C5.94509 15 3.33341 12.3883 3.33341 9.16666Z" fill="#818181"/>
</svg>
