<svg width="20" height="20" viewBox="0 0 20 20" fill="none" xmlns="http://www.w3.org/2000/svg">
<path fill-rule="evenodd" clip-rule="evenodd" d="M15.8336 17.5C17.6745 17.5 19.1669 16.0076 19.1669 14.1667V6.68557C19.1672 6.67283 19.1672 6.66005 19.1669 6.64725V5.83333C19.1669 3.99238 17.6745 2.5 15.8336 2.5H4.16693C2.32598 2.5 0.833596 3.99238 0.833596 5.83333V6.64726C0.833299 6.66005 0.833301 6.67282 0.833596 6.68557V14.1667C0.833596 16.0076 2.32598 17.5 4.16693 17.5H15.8336ZM2.50026 14.1667C2.50026 15.0871 3.24645 15.8333 4.16693 15.8333H15.8336C16.7541 15.8333 17.5003 15.0871 17.5003 14.1667V7.89753L11.2382 10.4023C10.4435 10.7202 9.557 10.7202 8.76229 10.4023L2.50026 7.89753V14.1667ZM10.6192 8.85488L17.5003 6.10247V5.83333C17.5003 4.91286 16.7541 4.16667 15.8336 4.16667H4.16693C3.24645 4.16667 2.50026 4.91286 2.50026 5.83333V6.10247L9.38128 8.85488C9.77863 9.01382 10.2219 9.01382 10.6192 8.85488Z" fill="#818181"/>
</svg>
